
<!-- Generator: visioncortex VTracer 0.6.4 -->
<svg version="1.1" xmlns="http://www.w3.org/2000/svg" viewBox="0 0 77 62" preserveAspectRatio="xMidYMid meet">
<path d="M0 0 C12.54 0 25.08 0 38 0 C45.31 14.62 45.31 14.62 45.301 21.941 C45.305 22.705 45.309 23.47 45.314 24.257 C45.319 25.868 45.32 27.479 45.316 29.091 C45.313 31.558 45.336 34.023 45.361 36.49 C45.364 38.057 45.364 39.624 45.363 41.191 C45.372 41.929 45.382 42.667 45.391 43.426 C45.345 48.529 45.345 48.529 43.76 50.695 C41.516 52.359 40.247 52.374 37.469 52.372 C36.097 52.382 36.097 52.382 34.698 52.391 C33.714 52.382 32.729 52.373 31.715 52.363 C30.703 52.364 29.691 52.364 28.648 52.365 C26.509 52.362 24.369 52.353 22.23 52.336 C18.947 52.313 15.664 52.316 12.381 52.322 C10.305 52.317 8.229 52.31 6.152 52.301 C5.166 52.302 4.179 52.303 3.163 52.304 C2.252 52.294 1.341 52.284 0.402 52.275 C-0.402 52.27 -1.205 52.265 -2.033 52.261 C-4 52 -4 52 -6 50 C-6.237 47.308 -6.352 44.723 -6.371 42.027 C-6.38 41.23 -6.389 40.433 -6.398 39.612 C-6.413 37.92 -6.422 36.228 -6.426 34.535 C-6.437 31.971 -6.486 29.409 -6.537 26.846 C-6.683 11.904 -6.683 11.904 -2.176 5.694 C-0.691 3.769 -0.691 3.769 0 0 Z M-2 15 C-2 15.33 -2 15.66 -2 16 C12.19 16 26.38 16 41 16 C41 15.67 41 15.34 41 15 C26.81 15 12.62 15 -2 15 Z M19 22 C19 25.96 19 29.92 19 34 C19.33 34 19.66 34 20 34 C20 30.04 20 26.08 20 22 C19.67 22 19.34 22 19 22 Z M36 22 C34.354 23.056 34.354 23.056 33 25 C32.583 28.542 32.583 28.542 33 32 C34.829 34.238 34.829 34.238 37.5 34.312 C38.325 34.209 39.15 34.106 40 34 C42.567 30.15 41.833 28.414 41 24 C38.525 23.01 38.525 23.01 36 22 Z M0 23 C-0.532 24.266 -1.05 25.538 -1.562 26.812 C-1.853 27.52 -2.143 28.228 -2.441 28.957 C-3.251 31.174 -3.251 31.174 -2 34 C-1.67 33.01 -1.34 32.02 -1 31 C0.32 31 1.64 31 3 31 C3.33 31.99 3.66 32.98 4 34 C5.26 32.028 5.26 32.028 4.441 29.836 C4.151 29.024 3.861 28.212 3.562 27.375 C3.131 26.149 3.131 26.149 2.691 24.898 C2.463 24.272 2.235 23.645 2 23 C1.34 23 0.68 23 0 23 Z M13 22 C12.01 23.485 12.01 23.485 11 25 C10.67 24.34 10.34 23.68 10 23 C9.34 23 8.68 23 8 23 C7.67 26.63 7.34 30.26 7 34 C7.66 34 8.32 34 9 34 C9.33 32.35 9.66 30.7 10 29 C10.66 29.33 11.32 29.66 12 30 C12 29.34 12 28.68 12 28 C12.66 28 13.32 28 14 28 C14 29.98 14 31.96 14 34 C14.33 34 14.66 34 15 34 C15.054 32.563 15.093 31.125 15.125 29.688 C15.148 28.887 15.171 28.086 15.195 27.262 C15.158 24.716 15.158 24.716 13 22 Z M29 22 C28.67 23.98 28.34 25.96 28 28 C27.546 27.175 27.093 26.35 26.625 25.5 C25.821 24.263 25.821 24.263 25 23 C24.34 23 23.68 23 23 23 C23 26.63 23 30.26 23 34 C23.66 34 24.32 34 25 34 C25.33 32.35 25.66 30.7 26 29 C26.681 30.237 26.681 30.237 27.375 31.5 C27.911 32.325 28.447 33.15 29 34 C29.66 34 30.32 34 31 34 C31 30.37 31 26.74 31 23 C30.34 22.67 29.68 22.34 29 22 Z M-2 41 C-2 41.33 -2 41.66 -2 42 C12.19 42 26.38 42 41 42 C41 41.67 41 41.34 41 41 C26.81 41 12.62 41 -2 41 Z M-3 45 C-2 48 -2 48 -2 48 Z M-2 48 C2 49 2 49 2 49 Z M35 24 C36.65 24.33 38.3 24.66 40 25 C40.625 27.312 40.625 27.312 41 30 C40.01 31.485 40.01 31.485 39 33 C35.125 32.125 35.125 32.125 34 31 C34.287 28.661 34.619 26.326 35 24 Z " fill="#000000" transform="translate(6,9)"/>
<path d="M0 0 C7.92 0 15.84 0 24 0 C24 5.61 24 11.22 24 17 C16.08 17 8.16 17 0 17 C0 11.39 0 5.78 0 0 Z M5.75 5 C5.172 5.66 4.595 6.32 4 7 C4.33 7.99 4.66 8.98 5 10 C9.62 10 14.24 10 19 10 C19 8.68 19 7.36 19 6 C17.546 5.814 17.546 5.814 16.062 5.625 C15.052 5.419 14.041 5.212 13 5 C12.67 4.34 12.34 3.68 12 3 C7.997 2.557 7.997 2.557 5.75 5 Z M9 13 C9 13.33 9 13.66 9 14 C10.98 14 12.96 14 15 14 C15 13.67 15 13.34 15 13 C13.02 13 11.04 13 9 13 Z M8 4 C8.99 4 9.98 4 11 4 C10.67 4.99 10.34 5.98 10 7 C9.34 6.67 8.68 6.34 8 6 C8 5.34 8 4.68 8 4 Z M16 7 C16.99 7.33 17.98 7.66 19 8 C18.01 8.33 17.02 8.66 16 9 C16 8.34 16 7.68 16 7 Z " fill="#000000" transform="translate(53,41)"/>
<path d="M0 0 C1.354 -0.009 1.354 -0.009 2.735 -0.017 C4.645 -0.027 6.554 -0.033 8.464 -0.037 C11.394 -0.047 14.324 -0.078 17.254 -0.109 C19.107 -0.116 20.96 -0.121 22.812 -0.125 C24.133 -0.144 24.133 -0.144 25.48 -0.162 C27.947 -0.153 27.947 -0.153 31.906 0.203 C32.566 1.193 33.226 2.183 33.906 3.203 C31.926 3.533 29.946 3.863 27.906 4.203 C29.886 4.533 31.866 4.863 33.906 5.203 C33.246 6.193 32.586 7.183 31.906 8.203 C28.807 8.482 25.911 8.575 22.812 8.531 C21.91 8.529 21.008 8.528 20.078 8.526 C18.168 8.519 16.258 8.505 14.348 8.484 C11.418 8.453 8.489 8.443 5.559 8.438 C3.706 8.428 1.853 8.418 0 8.406 C-0.88 8.402 -1.76 8.398 -2.667 8.393 C-8.859 8.32 -8.859 8.32 -11.094 7.203 C-11.094 6.543 -11.094 5.883 -11.094 5.203 C-9.114 4.873 -7.134 4.543 -5.094 4.203 C-8.064 3.708 -8.064 3.708 -11.094 3.203 C-11.094 2.543 -11.094 1.883 -11.094 1.203 C-7.675 -0.506 -3.763 0.018 0 0 Z M1.906 3.203 C1.906 3.863 1.906 4.523 1.906 5.203 C8.176 5.203 14.446 5.203 20.906 5.203 C20.906 4.543 20.906 3.883 20.906 3.203 C14.636 3.203 8.366 3.203 1.906 3.203 Z " fill="#000000" transform="translate(14.09375,-0.203125)"/>
<path d="M0 0 C0.721 -0.037 1.441 -0.075 2.184 -0.113 C6.116 -0.178 7.745 0.011 10.633 2.773 C12.125 5.375 12.125 5.375 12.125 7.375 C4.205 7.375 -3.715 7.375 -11.875 7.375 C-11.215 5.395 -10.555 3.415 -9.875 1.375 C-6.743 -0.191 -3.436 0.067 0 0 Z " fill="#000000" transform="translate(64.875,32.625)"/>
<path d="M0 0 C1.653 0.017 1.653 0.017 3.34 0.035 C4.997 0.049 4.997 0.049 6.688 0.062 C7.542 0.074 8.397 0.086 9.277 0.098 C9.84 2.035 9.84 2.035 10.277 4.098 C9.277 5.098 9.277 5.098 6.555 5.195 C4.901 5.178 4.901 5.178 3.215 5.16 C1.558 5.147 1.558 5.147 -0.133 5.133 C-0.987 5.121 -1.842 5.11 -2.723 5.098 C-3.285 3.16 -3.285 3.16 -3.723 1.098 C-2.723 0.098 -2.723 0.098 0 0 Z " fill="#000000" transform="translate(61.72265625,22.90234375)"/>
<path d="M0 0 C7.26 0 14.52 0 22 0 C22 0.66 22 1.32 22 2 C19.729 3.135 18.457 3.129 15.938 3.133 C15.141 3.134 14.344 3.135 13.523 3.137 C12.691 3.133 11.858 3.129 11 3.125 C9.751 3.131 9.751 3.131 8.477 3.137 C7.68 3.135 6.883 3.134 6.062 3.133 C5.332 3.132 4.601 3.131 3.848 3.129 C2 3 2 3 0 2 C0 1.34 0 0.68 0 0 Z " fill="#000000" transform="translate(54,59)"/>
<path d="M0 0 C3.96 0 7.92 0 12 0 C11.67 0.99 11.34 1.98 11 3 C7.7 3 4.4 3 1 3 C0.67 2.01 0.34 1.02 0 0 Z " fill="#000000" transform="translate(59,29)"/>
<path d="M0 0 C0.66 0 1.32 0 2 0 C2 0.99 2 1.98 2 3 C1.34 3 0.68 3 0 3 C0 2.01 0 1.02 0 0 Z " fill="#000000" transform="translate(6,36)"/>
<path d="M0 0 C0.66 0 1.32 0 2 0 C2 0.66 2 1.32 2 2 C1.34 2 0.68 2 0 2 C0 1.34 0 0.68 0 0 Z " fill="#000000" transform="translate(65,48)"/>
</svg>