
<!-- Generator: visioncortex VTracer 0.6.4 -->
<svg version="1.1" xmlns="http://www.w3.org/2000/svg" viewBox="0 0 72 66" preserveAspectRatio="xMidYMid meet">
<path d="M0 0 C1.887 0.031 1.887 0.031 3.812 0.062 C4.033 0.95 4.033 0.95 4.258 1.855 C5.883 7.581 7.483 10.905 12.812 14.062 C18.221 15.665 22.941 15.343 28.09 13.07 C32.111 10.718 33.789 7.568 35.062 3.25 C35.31 2.198 35.557 1.146 35.812 0.062 C41.034 -0.251 44.389 0.182 48.812 3.062 C51.337 6.636 50.896 9.754 50.562 14 C50.509 14.683 50.456 15.366 50.402 16.07 C50.282 17.575 50.156 19.08 50.024 20.584 C49.796 23.258 49.597 25.933 49.398 28.609 C49.246 30.49 49.093 32.37 48.938 34.25 C48.838 35.595 48.838 35.595 48.737 36.967 C48.207 42.917 47.149 46.726 42.812 51.062 C40.859 51.337 40.859 51.337 38.442 51.369 C37.085 51.393 37.085 51.393 35.701 51.417 C34.23 51.425 34.23 51.425 32.73 51.434 C31.221 51.447 31.221 51.447 29.681 51.461 C27.548 51.475 25.416 51.484 23.283 51.488 C20.023 51.5 16.765 51.549 13.506 51.6 C11.435 51.609 9.364 51.616 7.293 51.621 C5.832 51.65 5.832 51.65 4.341 51.68 C-0.281 51.65 -2.484 51.584 -6.287 48.766 C-8.747 45.267 -9.154 42.091 -9.438 37.938 C-9.506 37.181 -9.575 36.425 -9.646 35.646 C-9.781 34.138 -9.908 32.628 -10.024 31.119 C-10.233 28.49 -10.529 25.872 -10.812 23.25 C-12.077 7.626 -12.077 7.626 -9.375 2.875 C-6.292 0.32 -3.874 -0.064 0 0 Z M-2.188 21.062 C-2.542 23.703 -2.658 25.876 -2.562 28.5 C-2.55 29.819 -2.537 31.137 -2.523 32.496 C-2.224 35.67 -1.978 37.478 -0.188 40.062 C2.653 41.483 4.667 41.377 7.812 41.062 C10.895 38.804 11.726 37.597 12.344 33.785 C12.328 31.973 12.328 31.973 12.312 30.125 C12.323 28.92 12.333 27.714 12.344 26.473 C11.727 22.511 10.67 20.832 7.812 18.062 C3.438 17.333 0.877 17.835 -2.188 21.062 Z M27.812 22.062 C27.439 24.909 27.296 27.295 27.375 30.125 C27.368 30.845 27.361 31.565 27.354 32.307 C27.397 36.422 27.397 36.422 29.223 40.004 C31.213 41.329 32.404 41.921 34.812 42.062 C37.056 40.915 39.022 39.853 40.812 38.062 C41.158 35.448 41.421 32.876 41.625 30.25 C41.702 29.525 41.778 28.8 41.857 28.053 C42.13 24.469 42.157 22.537 40.012 19.582 C35.101 16.189 31.19 17.524 27.812 22.062 Z M17.812 21.062 C17.812 27.992 17.812 34.922 17.812 42.062 C18.802 42.062 19.793 42.062 20.812 42.062 C20.812 35.133 20.812 28.203 20.812 21.062 C19.822 21.062 18.832 21.062 17.812 21.062 Z " fill="#000000" transform="translate(11.1875,14.9375)"/>
<path d="M0 0 C3.701 1.81 6.264 4.077 7.754 7.969 C8.396 11.482 8.056 13.816 7 17.25 C4.511 20.673 2.019 22.745 -2 24 C-6.866 24.423 -10.669 23.649 -14.5 20.562 C-17.637 17.347 -17.936 16.763 -18.312 12.25 C-18.257 7.854 -16.887 5.368 -14 2 C-9.556 -0.736 -5.065 -0.87 0 0 Z M-10 8 C-9.284 10.016 -9.284 10.016 -8 12 C-5.95 12.805 -5.95 12.805 -4 13 C-4.33 11.68 -4.66 10.36 -5 9 C-6.65 8.67 -8.3 8.34 -10 8 Z " fill="#000000" transform="translate(36,4)"/>
<path d="M0 0 C1.32 0 2.64 0 4 0 C4 2.31 4 4.62 4 7 C5.65 6.67 7.3 6.34 9 6 C9.33 7.32 9.66 8.64 10 10 C8.931 11.036 7.844 12.053 6.75 13.062 C6.147 13.631 5.543 14.199 4.922 14.785 C3 16 3 16 0.938 15.828 C-2.125 14.519 -3.885 12.527 -6 10 C-6 8.68 -6 7.36 -6 6 C-4.68 6 -3.36 6 -2 6 C-1.34 4.02 -0.68 2.04 0 0 Z " fill="#000000" transform="translate(62,0)"/>
<path d="M0 0 C2.625 0.375 2.625 0.375 5 1 C6.432 5.773 6.396 11.221 5 16 C2.949 17.301 2.949 17.301 1 18 C0.01 17.34 -0.98 16.68 -2 16 C-2.363 12.812 -2.363 12.812 -2.312 9 C-2.309 7.742 -2.305 6.484 -2.301 5.188 C-2 2 -2 2 0 0 Z " fill="#000000" transform="translate(44,36)"/>
<path d="M0 0 C2.5 0.125 2.5 0.125 3.5 1.125 C3.573 3.822 3.592 6.492 3.562 9.188 C3.558 9.946 3.553 10.705 3.549 11.486 C3.537 13.366 3.519 15.245 3.5 17.125 C1.85 17.125 0.2 17.125 -1.5 17.125 C-3.225 13.388 -3.749 10.481 -3.688 6.375 C-3.678 4.929 -3.678 4.929 -3.668 3.453 C-3.434 0.212 -3.261 0.163 0 0 Z " fill="#000000" transform="translate(15.5,35.875)"/>
</svg>