
<!-- Generator: visioncortex VTracer 0.6.4 -->
<svg version="1.1" xmlns="http://www.w3.org/2000/svg" viewBox="0 0 66 66" preserveAspectRatio="xMidYMid meet">
<path d="M0 0 C4.375 2.311 6.953 4.474 9 9 C9.688 12.313 9.688 12.313 10 15 C10.33 14.01 10.66 13.02 11 12 C15.647 13.328 18.595 15.854 21 20 C21.812 23.875 21.812 23.875 22 27 C22.371 26.113 22.742 25.226 23.125 24.312 C25.316 20.443 27.279 18.433 31 16 C34.875 15.688 34.875 15.688 38 16 C37.046 26.497 34.33 35.659 26 42.688 C22.722 44.839 20.878 44.615 17 44 C13.102 41.977 9.559 39.565 6 37 C5.374 36.56 4.747 36.121 4.102 35.668 C0.143 32.664 -1.849 29.384 -4 25 C-4 24.34 -4 23.68 -4 23 C-4.722 22.918 -5.444 22.835 -6.188 22.75 C-10.237 21.67 -12.808 19.59 -15.312 16.25 C-16.373 12.78 -16.681 9.547 -16 6 C-12.196 -0.803 -7.247 -1.771 0 0 Z M20 30 C20 33 20 33 20 33 Z " fill="#000000" transform="translate(16,22)"/>
<path d="M0 0 C3.213 1.733 5.03 3.143 7.07 6.203 C7.77 11 7.785 14.978 5.32 19.203 C1.149 22.911 -2.202 23.645 -7.676 23.527 C-11.16 23.026 -13.293 21.454 -15.93 19.203 C-18.632 15.149 -18.457 11.958 -17.93 7.203 C-16.539 3.649 -15.366 2.491 -12.18 0.391 C-7.885 -1.179 -4.345 -1.794 0 0 Z M-11.93 8.203 C-12.389 11.354 -12.452 13.282 -10.867 16.078 C-7.823 17.846 -5.367 17.571 -1.93 17.203 C0.134 16.223 0.134 16.223 1.07 14.203 C1.464 11.054 1.599 9.084 -0.055 6.328 C-4.271 3.798 -8.751 4.535 -11.93 8.203 Z " fill="#000000" transform="translate(57.9296875,13.796875)"/>
<path d="M0 0 C2.438 0.75 2.438 0.75 4.438 2.75 C4.108 6.047 3.815 7.373 1.438 9.75 C-1.433 10.118 -2.97 10.125 -5.438 8.562 C-6.562 6.75 -6.562 6.75 -6.438 4.188 C-5.19 0.711 -3.701 -0.361 0 0 Z " fill="#000000" transform="translate(53.5625,20.25)"/>
<path d="M0 0 C0.66 0 1.32 0 2 0 C6 4.471 6 4.471 6 7 C5.01 7 4.02 7 3 7 C3 9.97 3 12.94 3 16 C1.68 16 0.36 16 -1 16 C-1.163 13.982 -1.326 11.964 -1.488 9.945 C-1.874 7.605 -1.874 7.605 -5 6 C-3.384 3.959 -1.714 1.959 0 0 Z " fill="#000000" transform="translate(29,11)"/>
<path d="M0 0 C0.66 0 1.32 0 2 0 C3.32 2.31 4.64 4.62 6 7 C5.01 7 4.02 7 3 7 C3 9.64 3 12.28 3 15 C1.68 15.33 0.36 15.66 -1 16 C-1.163 13.982 -1.326 11.964 -1.488 9.945 C-1.874 7.605 -1.874 7.605 -5 6 C-3.384 3.959 -1.714 1.959 0 0 Z " fill="#000000" transform="translate(14,0)"/>
</svg>