
<!-- Generator: visioncortex VTracer 0.6.4 -->
<svg version="1.1" xmlns="http://www.w3.org/2000/svg" viewBox="0 0 62 66" preserveAspectRatio="xMidYMid meet">
<path d="M0 0 C0.954 -0.01 1.909 -0.019 2.892 -0.029 C3.925 -0.028 4.959 -0.027 6.023 -0.026 C7.61 -0.033 7.61 -0.033 9.229 -0.039 C11.468 -0.045 13.708 -0.045 15.947 -0.041 C19.384 -0.038 22.821 -0.061 26.258 -0.087 C28.43 -0.089 30.602 -0.09 32.773 -0.089 C33.807 -0.098 34.84 -0.107 35.905 -0.117 C36.859 -0.11 37.814 -0.104 38.797 -0.098 C39.639 -0.098 40.481 -0.099 41.349 -0.1 C42.025 0.024 42.702 0.147 43.398 0.275 C45.398 3.275 45.398 3.275 45.211 6.712 C45.273 7.888 45.335 9.063 45.398 10.275 C46.623 11.042 46.623 11.042 47.873 11.825 C50.766 14.631 50.795 15.22 51.014 19.072 C51.033 21.056 51.024 23.041 50.992 25.025 C50.992 26.075 50.992 27.125 50.992 28.207 C50.987 30.426 50.969 32.646 50.94 34.865 C50.899 38.262 50.899 41.658 50.906 45.056 C50.896 47.212 50.883 49.368 50.867 51.525 C50.867 52.541 50.867 53.558 50.867 54.606 C50.851 55.553 50.835 56.501 50.818 57.478 C50.81 58.31 50.802 59.141 50.793 59.998 C50.29 62.901 49.531 64.238 47.398 66.275 C44.932 66.776 44.932 66.776 41.965 66.776 C40.854 66.786 39.742 66.795 38.597 66.805 C37.397 66.794 36.197 66.782 34.961 66.771 C33.114 66.773 33.114 66.773 31.229 66.775 C27.955 66.773 24.682 66.752 21.408 66.724 C19.4 66.712 17.393 66.714 15.386 66.721 C11.536 66.733 7.686 66.725 3.836 66.708 C2.636 66.711 1.436 66.714 0.199 66.717 C-0.912 66.704 -2.023 66.692 -3.168 66.679 C-4.147 66.673 -5.126 66.668 -6.135 66.662 C-8.602 66.275 -8.602 66.275 -10.417 65.049 C-11.963 62.734 -11.982 61.26 -11.99 58.484 C-11.999 57.513 -12.009 56.541 -12.018 55.541 C-12.012 54.494 -12.006 53.447 -12 52.368 C-12.003 51.292 -12.006 50.216 -12.009 49.107 C-12.011 46.831 -12.005 44.554 -11.993 42.278 C-11.977 38.788 -11.993 35.3 -12.012 31.81 C-12.01 29.6 -12.006 27.391 -12 25.181 C-12.006 24.134 -12.012 23.087 -12.018 22.008 C-12.009 21.037 -11.999 20.066 -11.99 19.066 C-11.987 18.211 -11.985 17.356 -11.983 16.475 C-11.519 13.799 -10.753 12.888 -8.602 11.275 C-7.942 11.275 -7.282 11.275 -6.602 11.275 C-6.625 10.648 -6.648 10.022 -6.672 9.376 C-6.699 8.15 -6.699 8.15 -6.727 6.9 C-6.75 6.088 -6.773 5.275 -6.797 4.439 C-6.399 0.027 -3.766 0.021 0 0 Z M4.398 26.275 C3.148 27.302 3.148 27.302 3.285 29.5 C3.29 30.458 3.295 31.416 3.301 32.404 C3.304 33.438 3.307 34.473 3.311 35.538 C3.319 36.627 3.327 37.716 3.336 38.837 C3.34 39.93 3.345 41.022 3.35 42.148 C3.361 44.857 3.378 47.566 3.398 50.275 C4.388 50.275 5.378 50.275 6.398 50.275 C6.398 42.685 6.398 35.095 6.398 27.275 C5.738 26.945 5.078 26.615 4.398 26.275 Z M10.398 26.275 C9.148 27.302 9.148 27.302 9.285 29.5 C9.29 30.458 9.295 31.416 9.301 32.404 C9.304 33.438 9.307 34.473 9.311 35.538 C9.319 36.627 9.327 37.716 9.336 38.837 C9.34 39.93 9.345 41.022 9.35 42.148 C9.361 44.857 9.378 47.566 9.398 50.275 C10.388 50.275 11.378 50.275 12.398 50.275 C12.398 42.685 12.398 35.095 12.398 27.275 C11.738 26.945 11.078 26.615 10.398 26.275 Z M27.398 26.275 C26.148 27.302 26.148 27.302 26.285 29.5 C26.29 30.458 26.295 31.416 26.301 32.404 C26.304 33.438 26.307 34.473 26.311 35.538 C26.319 36.627 26.327 37.716 26.336 38.837 C26.34 39.93 26.345 41.022 26.35 42.148 C26.361 44.857 26.378 47.566 26.398 50.275 C27.388 50.275 28.378 50.275 29.398 50.275 C29.398 42.685 29.398 35.095 29.398 27.275 C28.738 26.945 28.078 26.615 27.398 26.275 Z M33.398 26.275 C32.148 27.302 32.148 27.302 32.285 29.5 C32.29 30.458 32.295 31.416 32.301 32.404 C32.304 33.438 32.307 34.473 32.311 35.538 C32.319 36.627 32.327 37.716 32.336 38.837 C32.34 39.93 32.345 41.022 32.35 42.148 C32.361 44.857 32.378 47.566 32.398 50.275 C33.388 50.275 34.378 50.275 35.398 50.275 C35.398 42.685 35.398 35.095 35.398 27.275 C34.738 26.945 34.078 26.615 33.398 26.275 Z M-2.602 29.275 C-2.602 35.215 -2.602 41.155 -2.602 47.275 C-1.612 47.275 -0.622 47.275 0.398 47.275 C0.398 41.335 0.398 35.395 0.398 29.275 C-0.592 29.275 -1.582 29.275 -2.602 29.275 Z M38.398 29.275 C36.955 30.489 36.955 30.489 37.301 34.091 C37.307 35.673 37.319 37.255 37.336 38.837 C37.34 39.643 37.345 40.45 37.35 41.281 C37.361 43.279 37.379 45.277 37.398 47.275 C38.718 47.275 40.038 47.275 41.398 47.275 C41.398 41.665 41.398 36.055 41.398 30.275 C40.408 29.945 39.418 29.615 38.398 29.275 Z M-6.602 36.275 C-6.602 37.925 -6.602 39.575 -6.602 41.275 C-6.272 41.275 -5.942 41.275 -5.602 41.275 C-5.602 39.625 -5.602 37.975 -5.602 36.275 C-5.932 36.275 -6.262 36.275 -6.602 36.275 Z M15.398 36.275 C15.398 37.925 15.398 39.575 15.398 41.275 C18.038 41.275 20.678 41.275 23.398 41.275 C23.398 39.625 23.398 37.975 23.398 36.275 C20.758 36.275 18.118 36.275 15.398 36.275 Z M43.398 36.275 C43.398 37.925 43.398 39.575 43.398 41.275 C44.058 41.275 44.718 41.275 45.398 41.275 C45.398 39.625 45.398 37.975 45.398 36.275 C44.738 36.275 44.078 36.275 43.398 36.275 Z " fill="#000000" transform="translate(11.6015625,-0.274658203125)"/>
</svg>