
<!-- Generator: visioncortex VTracer 0.6.4 -->
<svg version="1.1" xmlns="http://www.w3.org/2000/svg" viewBox="0 0 62 62" preserveAspectRatio="xMidYMid meet">
<path d="M0 0 C17.16 0 34.32 0 52 0 C51.813 14.375 51.813 14.375 51.73 18.908 C51.718 20.667 51.718 20.667 51.707 22.461 C51.683 24.268 51.683 24.268 51.659 26.111 C51.772 27.064 51.884 28.018 52 29 C52.99 29.66 53.98 30.32 55 31 C55 31.66 55 32.32 55 33 C57.97 33.495 57.97 33.495 61 34 C61.625 37.375 61.625 37.375 62 41 C59.383 43.617 58.237 43.263 54.588 43.291 C52.891 43.31 52.891 43.31 51.16 43.329 C49.319 43.333 49.319 43.333 47.441 43.336 C45.559 43.346 45.559 43.346 43.638 43.356 C40.979 43.366 38.32 43.372 35.661 43.371 C32.253 43.37 28.846 43.398 25.438 43.432 C22.189 43.46 18.94 43.459 15.691 43.461 C13.854 43.482 13.854 43.482 11.979 43.504 C10.845 43.498 9.71 43.492 8.541 43.486 C7.041 43.49 7.041 43.49 5.511 43.494 C3 43 3 43 1.175 41.222 C-0.067 38.874 -0.366 37.593 -0.341 34.966 C-0.34 34.174 -0.34 33.383 -0.339 32.568 C-0.324 31.746 -0.309 30.925 -0.293 30.078 C-0.29 29.315 -0.287 28.553 -0.284 27.767 C-0.268 24.928 -0.226 22.089 -0.188 19.25 C-0.126 12.898 -0.064 6.545 0 0 Z M28 6 C29 8 29 8 29 8 Z M27 8 C25.828 9.454 24.662 10.913 23.5 12.375 C22.85 13.187 22.201 13.999 21.531 14.836 C19.807 16.83 19.807 16.83 20 19 C22.475 19.495 22.475 19.495 25 20 C24.67 21.98 24.34 23.96 24 26 C27.288 22.89 29.837 19.984 32 16 C30.02 16 28.04 16 26 16 C26.351 15.237 26.701 14.474 27.062 13.688 C28.324 10.952 28.324 10.952 27 8 Z M23 26 C24 28 24 28 24 28 Z M35 26 C36 30 36 30 36 30 Z M47 31 C46.67 31.66 46.34 32.32 46 33 C46.66 33 47.32 33 48 33 C47.67 32.34 47.34 31.68 47 31 Z M33 36 C34 40 34 40 34 40 Z " fill="#000000" transform="translate(0,19)"/>
<path d="M0 0 C0.911 -0.01 1.822 -0.019 2.761 -0.029 C4.241 -0.028 4.241 -0.028 5.75 -0.026 C6.761 -0.03 7.772 -0.035 8.814 -0.039 C10.955 -0.045 13.096 -0.045 15.237 -0.041 C18.519 -0.038 21.799 -0.061 25.08 -0.087 C27.158 -0.089 29.235 -0.09 31.313 -0.089 C32.297 -0.098 33.282 -0.107 34.296 -0.117 C35.21 -0.11 36.124 -0.104 37.066 -0.098 C38.273 -0.099 38.273 -0.099 39.504 -0.1 C41.598 0.275 41.598 0.275 43.381 1.485 C44.598 3.275 44.598 3.275 44.598 8.275 C27.438 8.275 10.278 8.275 -7.402 8.275 C-6.029 0.035 -6.029 0.035 0 0 Z " fill="#000000" transform="translate(7.402099609375,9.725341796875)"/>
<path d="M0 0 C1.3 0.003 1.3 0.003 2.626 0.006 C3.51 0.005 4.394 0.004 5.305 0.003 C7.178 0.003 9.051 0.004 10.924 0.009 C13.801 0.014 16.679 0.009 19.556 0.002 C21.371 0.003 23.186 0.004 25.001 0.006 C25.868 0.004 26.735 0.002 27.627 0 C33.699 0.024 33.699 0.024 34.814 1.139 C34.814 3.779 34.814 6.419 34.814 9.139 C20.954 9.139 7.094 9.139 -7.186 9.139 C-7.186 0.028 -7.186 0.028 0 0 Z " fill="#000000" transform="translate(12.186279296875,-0.138946533203125)"/>
</svg>