
<!-- Generator: visioncortex VTracer 0.6.4 -->
<svg version="1.1" xmlns="http://www.w3.org/2000/svg" viewBox="0 0 73 60" preserveAspectRatio="xMidYMid meet">
<path d="M0 0 C1.069 0.018 2.137 0.036 3.238 0.055 C4.047 0.078 4.855 0.101 5.688 0.125 C5.688 1.775 5.688 3.425 5.688 5.125 C1.398 5.125 -2.892 5.125 -7.312 5.125 C-7.312 13.045 -7.312 20.965 -7.312 29.125 C-6.652 28.795 -5.992 28.465 -5.312 28.125 C-3.605 28.055 -1.896 28.041 -0.188 28.062 C0.723 28.072 1.633 28.081 2.57 28.09 C3.269 28.101 3.968 28.113 4.688 28.125 C6.886 32.659 6.688 34.556 6.688 40.125 C2.067 40.125 -2.553 40.125 -7.312 40.125 C-7.312 37.815 -7.312 35.505 -7.312 33.125 C-10.282 32.795 -13.253 32.465 -16.312 32.125 C-14.211 6.657 -14.211 6.657 -11.312 2.125 C-7.541 0.019 -4.26 -0.094 0 0 Z M6.688 1.125 C7.678 1.125 8.667 1.125 9.688 1.125 C12.448 6.793 13.538 12.087 14.375 18.312 C14.505 19.201 14.634 20.09 14.768 21.006 C15.304 24.782 15.688 28.298 15.688 32.125 C12.388 32.125 9.087 32.125 5.688 32.125 C6.017 21.895 6.347 11.665 6.688 1.125 Z M16.688 29.125 C23.101 29.24 26.385 30.696 30.988 35.191 C36.369 41.314 36.036 47.235 36.086 55.113 C35.954 56.107 35.823 57.101 35.688 58.125 C32.587 60.192 31.958 60.37 28.457 60.32 C27.655 60.314 26.852 60.307 26.025 60.301 C25.192 60.284 24.359 60.267 23.5 60.25 C22.655 60.241 21.81 60.232 20.939 60.223 C18.855 60.199 16.771 60.163 14.688 60.125 C14.629 55.708 14.594 51.292 14.562 46.875 C14.546 45.621 14.529 44.366 14.512 43.074 C14.505 41.869 14.499 40.664 14.492 39.422 C14.482 38.312 14.471 37.201 14.46 36.058 C14.683 33.185 15.195 31.553 16.688 29.125 Z M18.688 42.125 C19.678 42.125 20.668 42.125 21.688 42.125 C21.688 43.445 21.688 44.765 21.688 46.125 C20.038 46.125 18.388 46.125 16.688 46.125 C16.688 46.455 16.688 46.785 16.688 47.125 C19.163 47.62 19.163 47.62 21.688 48.125 C22.017 49.115 22.347 50.105 22.688 51.125 C23.347 51.125 24.008 51.125 24.688 51.125 C24.688 50.135 24.688 49.145 24.688 48.125 C26.668 48.125 28.648 48.125 30.688 48.125 C30.688 47.795 30.688 47.465 30.688 47.125 C29.037 47.125 27.388 47.125 25.688 47.125 C25.688 44.815 25.688 42.505 25.688 40.125 C21.641 39.755 21.641 39.755 18.688 42.125 Z M27.688 42.125 C31.688 43.125 31.688 43.125 31.688 43.125 Z " fill="#000000" transform="translate(37.3125,-0.12499999999999999)"/>
<path d="M0 0 C0 1.32 0 2.64 0 4 C0.66 4 1.32 4 2 4 C2 12.91 2 21.82 2 31 C-0.887 31.062 -3.775 31.124 -6.75 31.188 C-7.653 31.215 -8.557 31.242 -9.487 31.27 C-12.925 31.306 -15.402 31.281 -18.547 29.805 C-21.042 26.706 -20.537 23.812 -20.375 19.984 C-19.654 14.247 -18.255 9.192 -14.023 5.078 C-9.163 1.367 -6.185 -0.134 0 0 Z M-7 12 C-7 12.33 -7 12.66 -7 13 C-5.35 13 -3.7 13 -2 13 C-2 12.67 -2 12.34 -2 12 C-3.65 12 -5.3 12 -7 12 Z M-15 13 C-11 14 -11 14 -11 14 Z M-6 17 C-6 17.33 -6 17.66 -6 18 C-4.02 18 -2.04 18 0 18 C0 17.67 0 17.34 0 17 C-1.98 17 -3.96 17 -6 17 Z M-14 18 C-10 19 -10 19 -10 19 Z " fill="#000000" transform="translate(20,29)"/>
<path d="M0 0 C4.62 0 9.24 0 14 0 C14 4.62 14 9.24 14 14 C9.38 14 4.76 14 0 14 C0 9.38 0 4.76 0 0 Z " fill="#000000" transform="translate(30,46)"/>
<path d="M0 0 C1.98 0 3.96 0 6 0 C6 8.91 6 17.82 6 27 C4.02 27 2.04 27 0 27 C0 18.09 0 9.18 0 0 Z " fill="#000000" transform="translate(45,33)"/>
<path d="M0 0 C1.98 0 3.96 0 6 0 C6 8.91 6 17.82 6 27 C4.02 27 2.04 27 0 27 C0 18.09 0 9.18 0 0 Z " fill="#000000" transform="translate(23,33)"/>
<path d="M0 0 C4.62 0 9.24 0 14 0 C14 1.32 14 2.64 14 4 C9.38 4 4.76 4 0 4 C0 2.68 0 1.36 0 0 Z " fill="#000000" transform="translate(30,41)"/>
</svg>