
<!-- Generator: visioncortex VTracer 0.6.4 -->
<svg version="1.1" xmlns="http://www.w3.org/2000/svg" viewBox="0 0 59 66" preserveAspectRatio="xMidYMid meet">
<path d="M0 0 C1.65 0 3.3 0 5 0 C4.395 5.656 3.378 11.002 1.938 16.5 C1.751 17.227 1.565 17.954 1.373 18.703 C0.92 20.47 0.46 22.235 0 24 C0.949 24.454 1.898 24.907 2.875 25.375 C6 27 6 27 8 29 C8.412 32.71 8.651 35.046 6.507 38.188 C2.987 40.732 -0.298 40.603 -4.484 40.609 C-5.3 40.626 -6.116 40.642 -6.956 40.659 C-9.554 40.708 -12.152 40.729 -14.75 40.75 C-16.514 40.778 -18.279 40.808 -20.043 40.84 C-24.362 40.914 -28.681 40.963 -33 41 C-33.33 42.65 -33.66 44.3 -34 46 C-35.65 46 -37.3 46 -39 46 C-38.732 44.928 -38.464 43.855 -38.188 42.75 C-38.126 41.513 -38.064 40.275 -38 39 C-40.283 36.623 -40.283 36.623 -43 35 C-44.851 31.298 -44.465 27.041 -44 23 C-41.862 19.334 -39.85 17.63 -36 16 C-29.024 14.935 -22.543 16.959 -15.938 19 C-14.496 19.429 -14.496 19.429 -13.025 19.867 C-10.68 20.567 -8.339 21.278 -6 22 C-5.734 20.831 -5.469 19.662 -5.195 18.457 C-4.839 16.909 -4.482 15.361 -4.125 13.812 C-3.951 13.044 -3.777 12.275 -3.598 11.482 C-2.675 7.499 -1.669 3.752 0 0 Z M-34.25 23.125 C-36.276 24.949 -36.276 24.949 -36.5 28 C-36.243 31.002 -36.243 31.002 -34.5 32.938 C-30.741 34.535 -27.987 33.731 -24 33 C-23.67 34.32 -23.34 35.64 -23 37 C-19.839 35.63 -19.007 35.011 -17 32 C-19.97 31.505 -19.97 31.505 -23 31 C-23.402 29.329 -23.402 29.329 -23.812 27.625 C-24.658 23.782 -24.658 23.782 -28 22 C-31.823 21.702 -31.823 21.702 -34.25 23.125 Z " fill="#000000" transform="translate(45,14)"/>
<path d="M0 0 C1.56 0.46 1.56 0.46 3.152 0.93 C4.195 1.221 5.238 1.512 6.312 1.812 C9.09 2.805 9.09 2.805 12.09 4.805 C12.09 6.125 12.09 7.445 12.09 8.805 C10.11 9.135 8.13 9.465 6.09 9.805 C6.42 11.785 6.75 13.765 7.09 15.805 C5.11 15.805 3.13 15.805 1.09 15.805 C0.76 13.825 0.43 11.845 0.09 9.805 C-1.364 9.433 -1.364 9.433 -2.848 9.055 C-5.91 7.805 -5.91 7.805 -7.035 5.93 C-6.91 3.805 -6.91 3.805 -5.281 1.602 C-2.91 -0.195 -2.91 -0.195 0 0 Z " fill="#000000" transform="translate(8.91015625,13.1953125)"/>
<path d="M0 0 C1.65 0.33 3.3 0.66 5 1 C3.983 5.608 2.565 9.766 -1 13 C-4.753 13.697 -8.228 13.476 -12 13 C-12.562 11.062 -12.562 11.062 -13 9 C-12 8 -12 8 -8.75 7.875 C-4.136 6.798 -3.26 5.351 -0.848 1.496 C-0.568 1.002 -0.288 0.509 0 0 Z " fill="#000000" transform="translate(54,0)"/>
<path d="M0 0 C1.653 0.017 1.653 0.017 3.34 0.035 C4.997 0.049 4.997 0.049 6.688 0.062 C7.542 0.074 8.397 0.086 9.277 0.098 C9.607 1.748 9.937 3.398 10.277 5.098 C5.657 5.098 1.037 5.098 -3.723 5.098 C-3.723 0.134 -3.723 0.134 0 0 Z " fill="#000000" transform="translate(42.72265625,60.90234375)"/>
<path d="M0 0 C3.96 0 7.92 0 12 0 C12.33 1.65 12.66 3.3 13 5 C8.38 5 3.76 5 -1 5 C-0.67 3.35 -0.34 1.7 0 0 Z " fill="#000000" transform="translate(2,61)"/>
<path d="M0 0 C1.454 0.031 1.454 0.031 2.938 0.062 C3.267 1.712 3.598 3.362 3.938 5.062 C1.462 4.072 1.462 4.072 -1.062 3.062 C-1.062 3.722 -1.062 4.383 -1.062 5.062 C0.258 5.722 1.578 6.383 2.938 7.062 C2.938 7.392 2.938 7.722 2.938 8.062 C0.938 8.105 -1.063 8.103 -3.062 8.062 C-4.062 7.062 -4.062 7.062 -4.188 4.062 C-4.022 0.082 -4.022 0.082 0 0 Z " fill="#000000" transform="translate(15.0625,37.9375)"/>
<path d="M0 0 C1.65 0 3.3 0 5 0 C5.33 1.65 5.66 3.3 6 5 C4.35 5 2.7 5 1 5 C0.67 3.35 0.34 1.7 0 0 Z " fill="#000000" transform="translate(42,55)"/>
</svg>